<svg xmlns="http://www.w3.org/2000/svg" viewBox="0 0 180 180" fill="none">
  <defs>
    <linearGradient id="bg" x1="0%" y1="0%" x2="100%" y2="100%">
      <stop offset="0%" style="stop-color:#0ea5e9"/>
      <stop offset="100%" style="stop-color:#0369a1"/>
    </linearGradient>
  </defs>
  <!-- Background -->
  <rect width="180" height="180" rx="40" fill="url(#bg)"/>
  <!-- House/A shape with heart -->
  <g transform="translate(90,90) scale(4.5) translate(-16,-16)">
    <g fill="white">
      <path d="M16 5L6 17h3v10h14V17h3L16 5zm5 19H11V15h10v9z"/>
      <path d="M16 14c-.8-1.2-2-1.5-3-1.5-1.8 0-3 1.5-3 3 0 2.5 6 5.5 6 5.5s6-3 6-5.5c0-1.5-1.2-3-3-3-1 0-2.2.3-3 1.5z" fill="#38bdf8"/>
    </g>
  </g>
</svg>
